<svg xmlns="http://www.w3.org/2000/svg" xmlns:xlink="http://www.w3.org/1999/xlink" width="48" zoomAndPan="magnify" viewBox="0 0 36 36.000001" height="48" preserveAspectRatio="xMidYMid meet" version="1.0"><defs><clipPath id="1a29531b7d"><path d="M 21.621094 2.230469 L 30.941406 2.230469 L 30.941406 32.816406 L 21.621094 32.816406 Z M 21.621094 2.230469 " clip-rule="nonzero"/></clipPath><clipPath id="659f42e9cf"><path d="M 30.941406 5.339844 L 30.941406 32.796875 L 21.621094 29.691406 L 21.621094 2.230469 Z M 30.941406 5.339844 " clip-rule="nonzero"/></clipPath><clipPath id="d74fc48f5d"><path d="M 13.832031 2.222656 L 21.625 2.222656 L 21.625 10.988281 L 13.832031 10.988281 Z M 13.832031 2.222656 " clip-rule="nonzero"/></clipPath><clipPath id="ab8af688ea"><path d="M 13.832031 4.820312 L 13.832031 10.988281 L 21.625 8.390625 L 21.625 2.222656 Z M 13.832031 4.820312 " clip-rule="nonzero"/></clipPath><clipPath id="055c617412"><path d="M 10.3125 9.769531 L 17 9.769531 L 17 28.109375 L 10.3125 28.109375 Z M 10.3125 9.769531 " clip-rule="nonzero"/></clipPath><clipPath id="962ebc2e70"><path d="M 17 12 L 17 28.097656 L 10.3125 25.871094 L 10.3125 9.769531 Z M 17 12 " clip-rule="nonzero"/></clipPath><clipPath id="7da43e44f2"><path d="M 5.042969 9.75 L 10.3125 9.75 L 10.3125 22.59375 L 5.042969 22.59375 Z M 5.042969 9.75 " clip-rule="nonzero"/></clipPath><clipPath id="f34e0730fa"><path d="M 5.042969 11.523438 L 5.042969 22.59375 L 10.3125 20.835938 L 10.3125 9.765625 Z M 5.042969 11.523438 " clip-rule="nonzero"/></clipPath></defs><g clip-path="url(#1a29531b7d)"><g clip-path="url(#659f42e9cf)"><path fill="#ffffff" d="M 30.941406 2.230469 L 30.941406 32.78125 L 21.621094 32.78125 L 21.621094 2.230469 Z M 30.941406 2.230469 " fill-opacity="1" fill-rule="nonzero"/></g></g><g clip-path="url(#d74fc48f5d)"><g clip-path="url(#ab8af688ea)"><path fill="#c0c0c0" d="M 13.832031 10.988281 L 13.832031 2.222656 L 21.625 2.222656 L 21.625 10.988281 Z M 13.832031 10.988281 " fill-opacity="1" fill-rule="nonzero"/></g></g><g clip-path="url(#055c617412)"><g clip-path="url(#962ebc2e70)"><path fill="#ffffff" d="M 17 9.769531 L 17 28.109375 L 10.3125 28.109375 L 10.3125 9.769531 Z M 17 9.769531 " fill-opacity="1" fill-rule="nonzero"/></g></g><g clip-path="url(#7da43e44f2)"><g clip-path="url(#f34e0730fa)"><path fill="#c0c0c0" d="M 5.042969 22.59375 L 5.042969 9.773438 L 10.3125 9.773438 L 10.3125 22.59375 Z M 5.042969 22.59375 " fill-opacity="1" fill-rule="nonzero"/></g></g></svg>