<svg xmlns="http://www.w3.org/2000/svg" xmlns:xlink="http://www.w3.org/1999/xlink" width="150" zoomAndPan="magnify" viewBox="0 0 112.5 36.000001" height="48" preserveAspectRatio="xMidYMid meet" version="1.0"><defs><g/><clipPath id="b82062e81d"><path d="M 23.757812 2.300781 L 33.035156 2.300781 L 33.035156 32.742188 L 23.757812 32.742188 Z M 23.757812 2.300781 " clip-rule="nonzero"/></clipPath><clipPath id="c6e7fdac0c"><path d="M 33.035156 5.390625 L 33.035156 32.722656 L 23.757812 29.628906 L 23.757812 2.300781 Z M 33.035156 5.390625 " clip-rule="nonzero"/></clipPath><clipPath id="69134160ad"><path d="M 16.003906 2.296875 L 23.761719 2.296875 L 23.761719 11.023438 L 16.003906 11.023438 Z M 16.003906 2.296875 " clip-rule="nonzero"/></clipPath><clipPath id="c710ab6cb7"><path d="M 16.003906 4.882812 L 16.003906 11.023438 L 23.761719 8.4375 L 23.761719 2.296875 Z M 16.003906 4.882812 " clip-rule="nonzero"/></clipPath><clipPath id="7011cc1f57"><path d="M 12.496094 9.808594 L 19.152344 9.808594 L 19.152344 28.0625 L 12.496094 28.0625 Z M 12.496094 9.808594 " clip-rule="nonzero"/></clipPath><clipPath id="84cc5d5628"><path d="M 19.152344 12.027344 L 19.152344 28.050781 L 12.496094 25.832031 L 12.496094 9.808594 Z M 19.152344 12.027344 " clip-rule="nonzero"/></clipPath><clipPath id="3a11634950"><path d="M 7.261719 9.785156 L 12.503906 9.785156 L 12.503906 22.566406 L 7.261719 22.566406 Z M 7.261719 9.785156 " clip-rule="nonzero"/></clipPath><clipPath id="131365f0a9"><path d="M 7.261719 11.546875 L 7.261719 22.566406 L 12.503906 20.816406 L 12.503906 9.796875 Z M 7.261719 11.546875 " clip-rule="nonzero"/></clipPath><clipPath id="d19546b0d0"><path d="M 69.074219 16.222656 L 104.316406 16.222656 L 104.316406 32.726562 L 69.074219 32.726562 Z M 69.074219 16.222656 " clip-rule="nonzero"/></clipPath></defs><g clip-path="url(#b82062e81d)"><g clip-path="url(#c6e7fdac0c)"><path fill="#ffffff" d="M 33.035156 2.300781 L 33.035156 32.707031 L 23.757812 32.707031 L 23.757812 2.300781 Z M 33.035156 2.300781 " fill-opacity="1" fill-rule="nonzero"/></g></g><g clip-path="url(#69134160ad)"><g clip-path="url(#c710ab6cb7)"><path fill="#c0c0c0" d="M 16.003906 11.023438 L 16.003906 2.296875 L 23.761719 2.296875 L 23.761719 11.023438 Z M 16.003906 11.023438 " fill-opacity="1" fill-rule="nonzero"/></g></g><g clip-path="url(#7011cc1f57)"><g clip-path="url(#84cc5d5628)"><path fill="#ffffff" d="M 19.152344 9.808594 L 19.152344 28.0625 L 12.496094 28.0625 L 12.496094 9.808594 Z M 19.152344 9.808594 " fill-opacity="1" fill-rule="nonzero"/></g></g><g clip-path="url(#3a11634950)"><g clip-path="url(#131365f0a9)"><path fill="#c0c0c0" d="M 7.261719 22.566406 L 7.261719 9.804688 L 12.503906 9.804688 L 12.503906 22.566406 Z M 7.261719 22.566406 " fill-opacity="1" fill-rule="nonzero"/></g></g><g clip-path="url(#d19546b0d0)"><path fill="#ffffff" d="M 69.074219 16.222656 L 104.335938 16.222656 L 104.335938 32.726562 L 69.074219 32.726562 Z M 69.074219 16.222656 " fill-opacity="1" fill-rule="nonzero"/></g><g fill="#ffffff" fill-opacity="1"><g transform="translate(37.704991, 14.004068)"><g><path d="M 3.8125 0.125 C 3.125 0.125 2.523438 0.0234375 2.015625 -0.171875 C 1.503906 -0.378906 1.109375 -0.679688 0.828125 -1.078125 C 0.546875 -1.484375 0.40625 -1.984375 0.40625 -2.578125 C 0.40625 -3.078125 0.507812 -3.492188 0.71875 -3.828125 C 0.9375 -4.160156 1.222656 -4.414062 1.578125 -4.59375 C 1.796875 -4.707031 2.023438 -4.796875 2.265625 -4.859375 C 2.503906 -4.929688 2.785156 -4.976562 3.109375 -5 C 3.441406 -5.03125 3.84375 -5.046875 4.3125 -5.046875 L 5.046875 -5.046875 C 5.023438 -5.390625 4.914062 -5.640625 4.71875 -5.796875 C 4.53125 -5.960938 4.285156 -6.046875 3.984375 -6.046875 C 3.691406 -6.046875 3.472656 -5.992188 3.328125 -5.890625 C 3.179688 -5.785156 3.109375 -5.640625 3.109375 -5.453125 C 3.109375 -5.421875 3.109375 -5.390625 3.109375 -5.359375 C 3.109375 -5.328125 3.109375 -5.300781 3.109375 -5.28125 L 2.328125 -5.1875 C 2.304688 -5.25 2.296875 -5.3125 2.296875 -5.375 C 2.296875 -5.4375 2.296875 -5.488281 2.296875 -5.53125 C 2.296875 -5.9375 2.441406 -6.242188 2.734375 -6.453125 C 3.023438 -6.671875 3.421875 -6.78125 3.921875 -6.78125 C 4.691406 -6.78125 5.222656 -6.46875 5.515625 -5.84375 C 5.710938 -6.1875 5.984375 -6.503906 6.328125 -6.796875 L 6.9375 -6.296875 C 6.914062 -6.265625 6.898438 -6.234375 6.890625 -6.203125 C 6.878906 -6.171875 6.875 -6.128906 6.875 -6.078125 C 6.875 -5.992188 6.898438 -5.898438 6.953125 -5.796875 C 7.003906 -5.691406 7.097656 -5.53125 7.234375 -5.3125 C 7.367188 -5.101562 7.472656 -4.910156 7.546875 -4.734375 C 7.628906 -4.554688 7.671875 -4.367188 7.671875 -4.171875 C 7.671875 -3.847656 7.566406 -3.578125 7.359375 -3.359375 C 7.160156 -3.148438 6.796875 -3.046875 6.265625 -3.046875 C 6.128906 -3.046875 5.984375 -3.066406 5.828125 -3.109375 L 5.828125 -0.859375 C 5.960938 -0.898438 6.09375 -0.945312 6.21875 -1 C 6.351562 -1.0625 6.488281 -1.128906 6.625 -1.203125 L 6.90625 -0.46875 C 6.726562 -0.382812 6.550781 -0.3125 6.375 -0.25 C 6.195312 -0.1875 6.015625 -0.132812 5.828125 -0.09375 L 5.828125 2.234375 L 5.046875 2.234375 L 5.046875 0.046875 C 4.835938 0.078125 4.625 0.0976562 4.40625 0.109375 C 4.195312 0.117188 4 0.125 3.8125 0.125 Z M 5.828125 -4.3125 L 5.828125 -3.828125 C 5.898438 -3.804688 5.96875 -3.789062 6.03125 -3.78125 C 6.09375 -3.78125 6.15625 -3.78125 6.21875 -3.78125 C 6.46875 -3.78125 6.640625 -3.816406 6.734375 -3.890625 C 6.828125 -3.972656 6.875 -4.09375 6.875 -4.25 C 6.875 -4.394531 6.847656 -4.523438 6.796875 -4.640625 C 6.742188 -4.753906 6.664062 -4.890625 6.5625 -5.046875 C 6.476562 -5.171875 6.410156 -5.28125 6.359375 -5.375 C 6.316406 -5.46875 6.285156 -5.5625 6.265625 -5.65625 C 6.078125 -5.4375 5.957031 -5.21875 5.90625 -5 C 5.851562 -4.789062 5.828125 -4.5625 5.828125 -4.3125 Z M 3.90625 -0.671875 C 4.101562 -0.671875 4.296875 -0.671875 4.484375 -0.671875 C 4.679688 -0.679688 4.867188 -0.695312 5.046875 -0.71875 L 5.046875 -4.3125 L 4.390625 -4.3125 C 3.867188 -4.3125 3.453125 -4.296875 3.140625 -4.265625 C 2.835938 -4.234375 2.59375 -4.1875 2.40625 -4.125 C 2.21875 -4.0625 2.050781 -3.988281 1.90625 -3.90625 C 1.457031 -3.625 1.234375 -3.164062 1.234375 -2.53125 C 1.234375 -2.207031 1.316406 -1.90625 1.484375 -1.625 C 1.660156 -1.34375 1.941406 -1.113281 2.328125 -0.9375 C 2.710938 -0.757812 3.238281 -0.671875 3.90625 -0.671875 Z M 3.90625 -0.671875 "/></g></g></g><g fill="#ffffff" fill-opacity="1"><g transform="translate(45.551436, 14.004068)"><g><path d="M 4.390625 -9.703125 C 5.171875 -9.703125 5.785156 -9.601562 6.234375 -9.40625 C 6.679688 -9.21875 7 -8.972656 7.1875 -8.671875 C 7.382812 -8.367188 7.484375 -8.046875 7.484375 -7.703125 C 7.484375 -7.523438 7.460938 -7.367188 7.421875 -7.234375 C 7.390625 -7.109375 7.359375 -7 7.328125 -6.90625 L 6.5625 -7.03125 C 6.59375 -7.101562 6.617188 -7.1875 6.640625 -7.28125 C 6.671875 -7.375 6.6875 -7.503906 6.6875 -7.671875 C 6.6875 -7.898438 6.617188 -8.109375 6.484375 -8.296875 C 6.347656 -8.484375 6.109375 -8.632812 5.765625 -8.75 C 5.429688 -8.863281 4.972656 -8.921875 4.390625 -8.921875 C 3.785156 -8.921875 3.316406 -8.863281 2.984375 -8.75 C 2.648438 -8.632812 2.414062 -8.484375 2.28125 -8.296875 C 2.144531 -8.109375 2.078125 -7.898438 2.078125 -7.671875 C 2.078125 -7.503906 2.085938 -7.375 2.109375 -7.28125 C 2.128906 -7.1875 2.15625 -7.101562 2.1875 -7.03125 L 1.421875 -6.90625 C 1.390625 -7 1.359375 -7.109375 1.328125 -7.234375 C 1.296875 -7.367188 1.28125 -7.519531 1.28125 -7.6875 C 1.28125 -8.03125 1.375 -8.351562 1.5625 -8.65625 C 1.75 -8.96875 2.070312 -9.21875 2.53125 -9.40625 C 2.988281 -9.601562 3.609375 -9.703125 4.390625 -9.703125 Z M 4.359375 0.125 C 3.023438 0.125 2.03125 -0.132812 1.375 -0.65625 C 0.726562 -1.175781 0.40625 -1.882812 0.40625 -2.78125 C 0.40625 -3.507812 0.632812 -4.066406 1.09375 -4.453125 C 1.5625 -4.847656 2.273438 -5.046875 3.234375 -5.046875 L 3.40625 -5.046875 C 3.382812 -5.390625 3.273438 -5.640625 3.078125 -5.796875 C 2.890625 -5.960938 2.65625 -6.046875 2.375 -6.046875 C 1.820312 -6.046875 1.546875 -5.828125 1.546875 -5.390625 C 1.546875 -5.285156 1.554688 -5.179688 1.578125 -5.078125 L 0.8125 -4.9375 C 0.757812 -5.101562 0.734375 -5.289062 0.734375 -5.5 C 0.734375 -5.914062 0.875 -6.234375 1.15625 -6.453125 C 1.4375 -6.671875 1.828125 -6.78125 2.328125 -6.78125 C 2.921875 -6.78125 3.378906 -6.609375 3.703125 -6.265625 C 4.035156 -5.921875 4.203125 -5.421875 4.203125 -4.765625 L 4.203125 -4.3125 L 3.484375 -4.3125 C 2.972656 -4.3125 2.578125 -4.273438 2.296875 -4.203125 C 2.023438 -4.140625 1.804688 -4.035156 1.640625 -3.890625 C 1.492188 -3.765625 1.382812 -3.609375 1.3125 -3.421875 C 1.238281 -3.234375 1.203125 -3.015625 1.203125 -2.765625 C 1.203125 -2.367188 1.304688 -2.007812 1.515625 -1.6875 C 1.734375 -1.375 2.078125 -1.125 2.546875 -0.9375 C 3.015625 -0.757812 3.625 -0.671875 4.375 -0.671875 C 5.125 -0.671875 5.726562 -0.757812 6.1875 -0.9375 C 6.65625 -1.125 7 -1.375 7.21875 -1.6875 C 7.4375 -2 7.546875 -2.359375 7.546875 -2.765625 C 7.546875 -3.015625 7.507812 -3.234375 7.4375 -3.421875 C 7.363281 -3.609375 7.253906 -3.765625 7.109375 -3.890625 C 6.941406 -4.035156 6.71875 -4.140625 6.4375 -4.203125 C 6.15625 -4.273438 5.765625 -4.3125 5.265625 -4.3125 L 4.546875 -4.3125 L 4.546875 -4.765625 C 4.546875 -5.421875 4.707031 -5.921875 5.03125 -6.265625 C 5.363281 -6.609375 5.832031 -6.78125 6.4375 -6.78125 C 6.925781 -6.78125 7.3125 -6.671875 7.59375 -6.453125 C 7.875 -6.234375 8.015625 -5.914062 8.015625 -5.5 C 8.015625 -5.300781 7.992188 -5.113281 7.953125 -4.9375 L 7.171875 -5.078125 C 7.203125 -5.179688 7.21875 -5.285156 7.21875 -5.390625 C 7.21875 -5.828125 6.9375 -6.046875 6.375 -6.046875 C 6.082031 -6.046875 5.835938 -5.960938 5.640625 -5.796875 C 5.453125 -5.640625 5.351562 -5.390625 5.34375 -5.046875 L 5.515625 -5.046875 C 6.484375 -5.046875 7.195312 -4.847656 7.65625 -4.453125 C 8.125 -4.054688 8.359375 -3.5 8.359375 -2.78125 C 8.359375 -1.882812 8.023438 -1.175781 7.359375 -0.65625 C 6.703125 -0.132812 5.703125 0.125 4.359375 0.125 Z M 4.359375 0.125 "/></g></g></g><g fill="#ffffff" fill-opacity="1"><g transform="translate(54.306652, 14.004068)"><g><path d="M 4.9375 2.265625 C 3.894531 2.265625 3.035156 2.078125 2.359375 1.703125 C 1.691406 1.335938 1.195312 0.828125 0.875 0.171875 C 0.5625 -0.484375 0.40625 -1.238281 0.40625 -2.09375 C 0.40625 -3.050781 0.597656 -3.878906 0.984375 -4.578125 C 1.378906 -5.285156 1.941406 -5.828125 2.671875 -6.203125 C 3.410156 -6.585938 4.289062 -6.78125 5.3125 -6.78125 C 6.195312 -6.78125 6.90625 -6.664062 7.4375 -6.4375 C 7.976562 -6.207031 8.367188 -5.894531 8.609375 -5.5 C 8.847656 -5.113281 8.96875 -4.679688 8.96875 -4.203125 C 8.96875 -3.609375 8.769531 -3.117188 8.375 -2.734375 C 7.976562 -2.347656 7.390625 -2.15625 6.609375 -2.15625 C 6.117188 -2.15625 5.734375 -2.222656 5.453125 -2.359375 C 5.179688 -2.492188 4.984375 -2.675781 4.859375 -2.90625 C 4.742188 -3.132812 4.6875 -3.394531 4.6875 -3.6875 C 4.6875 -3.800781 4.703125 -3.925781 4.734375 -4.0625 L 3.0625 -4.0625 L 3.0625 -4.8125 L 7.1875 -4.8125 L 7.1875 -4.0625 L 5.578125 -4.0625 C 5.523438 -3.957031 5.5 -3.835938 5.5 -3.703125 C 5.5 -3.492188 5.570312 -3.3125 5.71875 -3.15625 C 5.863281 -3 6.15625 -2.921875 6.59375 -2.921875 C 7.09375 -2.921875 7.472656 -3.03125 7.734375 -3.25 C 7.992188 -3.476562 8.125 -3.789062 8.125 -4.1875 C 8.125 -4.539062 8.039062 -4.851562 7.875 -5.125 C 7.707031 -5.40625 7.421875 -5.625 7.015625 -5.78125 C 6.617188 -5.945312 6.0625 -6.03125 5.34375 -6.03125 C 4.425781 -6.03125 3.660156 -5.863281 3.046875 -5.53125 C 2.441406 -5.207031 1.988281 -4.742188 1.6875 -4.140625 C 1.382812 -3.546875 1.234375 -2.859375 1.234375 -2.078125 C 1.234375 -0.910156 1.5625 -0.03125 2.21875 0.5625 C 2.882812 1.164062 3.785156 1.46875 4.921875 1.46875 C 5.535156 1.46875 6.09375 1.367188 6.59375 1.171875 C 7.101562 0.972656 7.503906 0.664062 7.796875 0.25 C 8.097656 -0.164062 8.25 -0.707031 8.25 -1.375 C 8.25 -1.40625 8.242188 -1.460938 8.234375 -1.546875 C 8.234375 -1.640625 8.234375 -1.722656 8.234375 -1.796875 L 9.03125 -1.84375 C 9.050781 -1.675781 9.0625 -1.515625 9.0625 -1.359375 C 9.0625 -0.734375 8.945312 -0.195312 8.71875 0.25 C 8.5 0.707031 8.195312 1.082031 7.8125 1.375 C 7.425781 1.675781 6.988281 1.898438 6.5 2.046875 C 6.007812 2.191406 5.488281 2.265625 4.9375 2.265625 Z M 4.9375 2.265625 "/></g></g></g><g fill="#ffffff" fill-opacity="1"><g transform="translate(63.748983, 14.004068)"><g><path d="M 3.71875 0.125 C 3.09375 0.125 2.566406 0.0351562 2.140625 -0.140625 C 1.710938 -0.316406 1.367188 -0.550781 1.109375 -0.84375 C 0.859375 -1.144531 0.675781 -1.484375 0.5625 -1.859375 C 0.445312 -2.234375 0.390625 -2.609375 0.390625 -2.984375 C 0.390625 -3.617188 0.535156 -4.171875 0.828125 -4.640625 C 1.128906 -5.117188 1.546875 -5.488281 2.078125 -5.75 C 2.609375 -6.019531 3.226562 -6.15625 3.9375 -6.15625 C 4.488281 -6.15625 4.972656 -6.113281 5.390625 -6.03125 C 5.816406 -5.957031 6.238281 -5.835938 6.65625 -5.671875 L 6.375 -4.9375 C 5.9375 -5.125 5.53125 -5.242188 5.15625 -5.296875 C 4.789062 -5.359375 4.378906 -5.390625 3.921875 -5.390625 C 3.429688 -5.390625 2.976562 -5.304688 2.5625 -5.140625 C 2.15625 -4.984375 1.828125 -4.722656 1.578125 -4.359375 C 1.328125 -4.003906 1.203125 -3.539062 1.203125 -2.96875 C 1.203125 -2.695312 1.238281 -2.421875 1.3125 -2.140625 C 1.394531 -1.867188 1.53125 -1.625 1.71875 -1.40625 C 1.914062 -1.1875 2.175781 -1.007812 2.5 -0.875 C 2.820312 -0.738281 3.226562 -0.671875 3.71875 -0.671875 C 4.269531 -0.671875 4.703125 -0.738281 5.015625 -0.875 C 5.335938 -1.007812 5.5625 -1.1875 5.6875 -1.40625 C 5.820312 -1.632812 5.890625 -1.890625 5.890625 -2.171875 C 5.890625 -2.421875 5.828125 -2.671875 5.703125 -2.921875 C 5.585938 -3.171875 5.351562 -3.351562 5 -3.46875 C 5.03125 -3.363281 5.050781 -3.257812 5.0625 -3.15625 C 5.082031 -3.050781 5.09375 -2.957031 5.09375 -2.875 C 5.09375 -2.414062 4.96875 -2.097656 4.71875 -1.921875 C 4.46875 -1.742188 4.160156 -1.65625 3.796875 -1.65625 C 3.398438 -1.65625 3.070312 -1.765625 2.8125 -1.984375 C 2.550781 -2.210938 2.421875 -2.539062 2.421875 -2.96875 C 2.421875 -3.382812 2.582031 -3.707031 2.90625 -3.9375 C 3.226562 -4.164062 3.648438 -4.28125 4.171875 -4.28125 C 4.722656 -4.28125 5.1875 -4.1875 5.5625 -4 C 5.9375 -3.8125 6.21875 -3.5625 6.40625 -3.25 C 6.59375 -2.945312 6.6875 -2.609375 6.6875 -2.234375 C 6.6875 -1.773438 6.585938 -1.367188 6.390625 -1.015625 C 6.191406 -0.660156 5.875 -0.378906 5.4375 -0.171875 C 5 0.0234375 4.425781 0.125 3.71875 0.125 Z M 3.21875 -2.953125 C 3.21875 -2.796875 3.253906 -2.660156 3.328125 -2.546875 C 3.410156 -2.441406 3.5625 -2.390625 3.78125 -2.390625 C 3.96875 -2.390625 4.109375 -2.441406 4.203125 -2.546875 C 4.296875 -2.648438 4.34375 -2.785156 4.34375 -2.953125 C 4.34375 -3.035156 4.332031 -3.132812 4.3125 -3.25 C 4.289062 -3.363281 4.253906 -3.46875 4.203125 -3.5625 L 4.09375 -3.5625 C 3.8125 -3.5625 3.59375 -3.503906 3.4375 -3.390625 C 3.289062 -3.285156 3.21875 -3.140625 3.21875 -2.953125 Z M 3.21875 -2.953125 "/></g></g></g><g fill="#ffffff" fill-opacity="1"><g transform="translate(70.742068, 14.004068)"><g><path d="M 3.515625 0.125 C 2.515625 0.125 1.75 -0.175781 1.21875 -0.78125 C 0.6875 -1.394531 0.421875 -2.226562 0.421875 -3.28125 C 0.421875 -4.03125 0.5625 -4.664062 0.84375 -5.1875 C 1.125 -5.707031 1.507812 -6.101562 2 -6.375 C 2.488281 -6.644531 3.054688 -6.78125 3.703125 -6.78125 C 3.753906 -6.78125 3.835938 -6.773438 3.953125 -6.765625 C 4.066406 -6.753906 4.164062 -6.75 4.25 -6.75 L 4.203125 -6 C 4.128906 -6 4.050781 -6 3.96875 -6 C 3.894531 -6.007812 3.816406 -6.015625 3.734375 -6.015625 C 2.867188 -6.015625 2.238281 -5.769531 1.84375 -5.28125 C 1.445312 -4.789062 1.25 -4.101562 1.25 -3.21875 C 1.25 -2.726562 1.328125 -2.285156 1.484375 -1.890625 C 1.648438 -1.503906 1.898438 -1.203125 2.234375 -0.984375 C 2.566406 -0.773438 2.992188 -0.671875 3.515625 -0.671875 C 4.171875 -0.671875 4.671875 -0.835938 5.015625 -1.171875 C 5.359375 -1.515625 5.53125 -1.953125 5.53125 -2.484375 C 5.53125 -2.765625 5.476562 -2.957031 5.375 -3.0625 C 5.28125 -3.175781 5.148438 -3.234375 4.984375 -3.234375 C 4.785156 -3.234375 4.601562 -3.164062 4.4375 -3.03125 L 3.65625 -3.28125 C 3.769531 -4 3.941406 -4.585938 4.171875 -5.046875 C 4.398438 -5.503906 4.664062 -5.859375 4.96875 -6.109375 C 5.269531 -6.359375 5.578125 -6.53125 5.890625 -6.625 C 6.210938 -6.726562 6.515625 -6.78125 6.796875 -6.78125 C 7.429688 -6.78125 7.957031 -6.632812 8.375 -6.34375 C 8.789062 -6.050781 9.101562 -5.648438 9.3125 -5.140625 C 9.519531 -4.640625 9.625 -4.066406 9.625 -3.421875 C 9.625 -2.660156 9.488281 -2.023438 9.21875 -1.515625 C 8.957031 -1.003906 8.59375 -0.617188 8.125 -0.359375 C 7.65625 -0.0976562 7.113281 0.03125 6.5 0.03125 C 6.289062 0.03125 6.09375 0.0195312 5.90625 0 L 5.9375 -0.75 C 5.988281 -0.75 6.054688 -0.742188 6.140625 -0.734375 C 6.222656 -0.734375 6.316406 -0.734375 6.421875 -0.734375 C 7.242188 -0.734375 7.84375 -0.972656 8.21875 -1.453125 C 8.601562 -1.941406 8.796875 -2.597656 8.796875 -3.421875 C 8.796875 -3.921875 8.71875 -4.359375 8.5625 -4.734375 C 8.40625 -5.117188 8.175781 -5.425781 7.875 -5.65625 C 7.570312 -5.882812 7.203125 -6 6.765625 -6 C 6.453125 -6 6.148438 -5.929688 5.859375 -5.796875 C 5.578125 -5.671875 5.320312 -5.453125 5.09375 -5.140625 C 4.863281 -4.835938 4.675781 -4.410156 4.53125 -3.859375 C 4.695312 -3.929688 4.867188 -3.96875 5.046875 -3.96875 C 5.441406 -3.96875 5.753906 -3.835938 5.984375 -3.578125 C 6.222656 -3.316406 6.34375 -2.945312 6.34375 -2.46875 C 6.34375 -1.976562 6.226562 -1.535156 6 -1.140625 C 5.78125 -0.742188 5.457031 -0.429688 5.03125 -0.203125 C 4.613281 0.015625 4.109375 0.125 3.515625 0.125 Z M 3.515625 0.125 "/></g></g></g><g fill="#ffffff" fill-opacity="1"><g transform="translate(80.808285, 14.004068)"><g/></g></g><g fill="#000000" fill-opacity="1"><g transform="translate(70.386213, 27.886225)"><g><path d="M 3.859375 0.125 C 3.210938 0.125 2.664062 0.0351562 2.21875 -0.140625 C 1.78125 -0.328125 1.425781 -0.570312 1.15625 -0.875 C 0.894531 -1.1875 0.703125 -1.535156 0.578125 -1.921875 C 0.460938 -2.316406 0.40625 -2.710938 0.40625 -3.109375 C 0.40625 -3.765625 0.554688 -4.335938 0.859375 -4.828125 C 1.171875 -5.328125 1.601562 -5.710938 2.15625 -5.984375 C 2.707031 -6.265625 3.351562 -6.40625 4.09375 -6.40625 C 4.664062 -6.40625 5.171875 -6.363281 5.609375 -6.28125 C 6.046875 -6.195312 6.484375 -6.066406 6.921875 -5.890625 L 6.625 -5.140625 C 6.164062 -5.328125 5.742188 -5.453125 5.359375 -5.515625 C 4.984375 -5.578125 4.554688 -5.609375 4.078125 -5.609375 C 3.566406 -5.609375 3.097656 -5.519531 2.671875 -5.34375 C 2.242188 -5.175781 1.898438 -4.90625 1.640625 -4.53125 C 1.378906 -4.164062 1.25 -3.6875 1.25 -3.09375 C 1.25 -2.800781 1.289062 -2.515625 1.375 -2.234375 C 1.457031 -1.953125 1.597656 -1.691406 1.796875 -1.453125 C 1.992188 -1.222656 2.257812 -1.035156 2.59375 -0.890625 C 2.925781 -0.753906 3.347656 -0.6875 3.859375 -0.6875 C 4.429688 -0.6875 4.882812 -0.753906 5.21875 -0.890625 C 5.550781 -1.035156 5.785156 -1.222656 5.921875 -1.453125 C 6.054688 -1.691406 6.125 -1.957031 6.125 -2.25 C 6.125 -2.519531 6.0625 -2.78125 5.9375 -3.03125 C 5.8125 -3.289062 5.5625 -3.484375 5.1875 -3.609375 C 5.226562 -3.492188 5.253906 -3.382812 5.265625 -3.28125 C 5.285156 -3.175781 5.296875 -3.078125 5.296875 -2.984375 C 5.296875 -2.515625 5.164062 -2.1875 4.90625 -2 C 4.644531 -1.820312 4.328125 -1.734375 3.953125 -1.734375 C 3.535156 -1.734375 3.191406 -1.847656 2.921875 -2.078125 C 2.648438 -2.304688 2.515625 -2.644531 2.515625 -3.09375 C 2.515625 -3.519531 2.679688 -3.851562 3.015625 -4.09375 C 3.359375 -4.332031 3.796875 -4.453125 4.328125 -4.453125 C 4.910156 -4.453125 5.394531 -4.351562 5.78125 -4.15625 C 6.175781 -3.96875 6.46875 -3.710938 6.65625 -3.390625 C 6.851562 -3.066406 6.953125 -2.707031 6.953125 -2.3125 C 6.953125 -1.84375 6.847656 -1.421875 6.640625 -1.046875 C 6.429688 -0.679688 6.097656 -0.394531 5.640625 -0.1875 C 5.191406 0.0195312 4.597656 0.125 3.859375 0.125 Z M 3.34375 -3.0625 C 3.34375 -2.90625 3.382812 -2.769531 3.46875 -2.65625 C 3.550781 -2.539062 3.703125 -2.484375 3.921875 -2.484375 C 4.117188 -2.484375 4.265625 -2.535156 4.359375 -2.640625 C 4.460938 -2.753906 4.515625 -2.898438 4.515625 -3.078125 C 4.515625 -3.160156 4.503906 -3.257812 4.484375 -3.375 C 4.460938 -3.5 4.421875 -3.609375 4.359375 -3.703125 L 4.265625 -3.703125 C 3.972656 -3.703125 3.742188 -3.644531 3.578125 -3.53125 C 3.421875 -3.414062 3.34375 -3.257812 3.34375 -3.0625 Z M 3.34375 -3.0625 "/></g></g></g><g fill="#000000" fill-opacity="1"><g transform="translate(77.645379, 27.886225)"><g><path d="M 3.65625 0.125 C 2.613281 0.125 1.816406 -0.1875 1.265625 -0.8125 C 0.710938 -1.445312 0.4375 -2.3125 0.4375 -3.40625 C 0.4375 -4.1875 0.582031 -4.847656 0.875 -5.390625 C 1.164062 -5.929688 1.566406 -6.34375 2.078125 -6.625 C 2.585938 -6.90625 3.175781 -7.046875 3.84375 -7.046875 C 3.90625 -7.046875 3.992188 -7.039062 4.109375 -7.03125 C 4.234375 -7.03125 4.335938 -7.023438 4.421875 -7.015625 L 4.375 -6.234375 C 4.300781 -6.234375 4.21875 -6.234375 4.125 -6.234375 C 4.039062 -6.242188 3.957031 -6.25 3.875 -6.25 C 2.976562 -6.25 2.320312 -5.992188 1.90625 -5.484375 C 1.5 -4.984375 1.296875 -4.269531 1.296875 -3.34375 C 1.296875 -2.832031 1.378906 -2.375 1.546875 -1.96875 C 1.722656 -1.570312 1.984375 -1.257812 2.328125 -1.03125 C 2.671875 -0.800781 3.113281 -0.6875 3.65625 -0.6875 C 4.332031 -0.6875 4.847656 -0.863281 5.203125 -1.21875 C 5.566406 -1.570312 5.75 -2.023438 5.75 -2.578125 C 5.75 -2.867188 5.695312 -3.070312 5.59375 -3.1875 C 5.488281 -3.300781 5.351562 -3.359375 5.1875 -3.359375 C 4.976562 -3.359375 4.789062 -3.289062 4.625 -3.15625 L 3.796875 -3.40625 C 3.910156 -4.15625 4.085938 -4.765625 4.328125 -5.234375 C 4.578125 -5.710938 4.851562 -6.082031 5.15625 -6.34375 C 5.46875 -6.613281 5.789062 -6.796875 6.125 -6.890625 C 6.46875 -6.992188 6.785156 -7.046875 7.078125 -7.046875 C 7.734375 -7.046875 8.273438 -6.894531 8.703125 -6.59375 C 9.140625 -6.289062 9.460938 -5.875 9.671875 -5.34375 C 9.890625 -4.820312 10 -4.226562 10 -3.5625 C 10 -2.769531 9.859375 -2.109375 9.578125 -1.578125 C 9.304688 -1.046875 8.925781 -0.644531 8.4375 -0.375 C 7.957031 -0.101562 7.398438 0.03125 6.765625 0.03125 C 6.535156 0.03125 6.328125 0.0195312 6.140625 0 L 6.171875 -0.78125 C 6.222656 -0.769531 6.289062 -0.765625 6.375 -0.765625 C 6.46875 -0.765625 6.566406 -0.765625 6.671875 -0.765625 C 7.523438 -0.765625 8.148438 -1.015625 8.546875 -1.515625 C 8.941406 -2.023438 9.140625 -2.707031 9.140625 -3.5625 C 9.140625 -4.070312 9.054688 -4.523438 8.890625 -4.921875 C 8.734375 -5.328125 8.5 -5.644531 8.1875 -5.875 C 7.875 -6.113281 7.488281 -6.234375 7.03125 -6.234375 C 6.707031 -6.234375 6.394531 -6.164062 6.09375 -6.03125 C 5.800781 -5.90625 5.535156 -5.679688 5.296875 -5.359375 C 5.054688 -5.035156 4.859375 -4.582031 4.703125 -4 C 4.878906 -4.082031 5.0625 -4.125 5.25 -4.125 C 5.65625 -4.125 5.976562 -3.988281 6.21875 -3.71875 C 6.46875 -3.445312 6.59375 -3.0625 6.59375 -2.5625 C 6.59375 -2.050781 6.472656 -1.59375 6.234375 -1.1875 C 6.003906 -0.78125 5.671875 -0.457031 5.234375 -0.21875 C 4.796875 0.0078125 4.269531 0.125 3.65625 0.125 Z M 3.65625 0.125 "/></g></g></g><g fill="#000000" fill-opacity="1"><g transform="translate(88.079709, 27.886225)"><g><path d="M 3.96875 0.125 C 3.25 0.125 2.625 0.0195312 2.09375 -0.1875 C 1.5625 -0.394531 1.148438 -0.707031 0.859375 -1.125 C 0.566406 -1.539062 0.421875 -2.0625 0.421875 -2.6875 C 0.421875 -3.1875 0.53125 -3.609375 0.75 -3.953125 C 0.96875 -4.304688 1.253906 -4.582031 1.609375 -4.78125 C 1.828125 -4.894531 2.054688 -4.984375 2.296875 -5.046875 C 2.535156 -5.117188 2.816406 -5.164062 3.140625 -5.1875 C 3.460938 -5.21875 3.859375 -5.234375 4.328125 -5.234375 L 5.484375 -5.234375 C 5.460938 -5.597656 5.347656 -5.863281 5.140625 -6.03125 C 4.941406 -6.195312 4.6875 -6.28125 4.375 -6.28125 C 4.070312 -6.28125 3.84375 -6.222656 3.6875 -6.109375 C 3.539062 -6.003906 3.46875 -5.859375 3.46875 -5.671875 C 3.46875 -5.640625 3.46875 -5.609375 3.46875 -5.578125 C 3.46875 -5.546875 3.472656 -5.519531 3.484375 -5.5 L 2.65625 -5.390625 C 2.644531 -5.453125 2.632812 -5.507812 2.625 -5.5625 C 2.625 -5.625 2.625 -5.6875 2.625 -5.75 C 2.625 -6.164062 2.773438 -6.484375 3.078125 -6.703125 C 3.378906 -6.929688 3.789062 -7.046875 4.3125 -7.046875 C 4.957031 -7.046875 5.445312 -6.867188 5.78125 -6.515625 C 6.125 -6.160156 6.296875 -5.640625 6.296875 -4.953125 L 6.296875 -4.484375 L 4.421875 -4.484375 C 3.910156 -4.484375 3.503906 -4.46875 3.203125 -4.4375 C 2.898438 -4.40625 2.65625 -4.351562 2.46875 -4.28125 C 2.28125 -4.21875 2.109375 -4.140625 1.953125 -4.046875 C 1.515625 -3.765625 1.296875 -3.296875 1.296875 -2.640625 C 1.296875 -2.304688 1.378906 -1.988281 1.546875 -1.6875 C 1.722656 -1.394531 2.015625 -1.15625 2.421875 -0.96875 C 2.828125 -0.78125 3.367188 -0.6875 4.046875 -0.6875 C 4.453125 -0.6875 4.835938 -0.726562 5.203125 -0.8125 C 5.566406 -0.894531 5.9375 -1.023438 6.3125 -1.203125 L 6.546875 -0.421875 C 6.367188 -0.328125 6.191406 -0.25 6.015625 -0.1875 C 5.835938 -0.132812 5.660156 -0.0820312 5.484375 -0.03125 C 4.960938 0.382812 4.703125 0.851562 4.703125 1.375 C 4.703125 2.019531 5.070312 2.34375 5.8125 2.34375 C 5.945312 2.34375 6.085938 2.328125 6.234375 2.296875 C 6.378906 2.265625 6.515625 2.222656 6.640625 2.171875 L 6.8125 2.90625 C 6.632812 2.988281 6.445312 3.046875 6.25 3.078125 C 6.0625 3.109375 5.859375 3.125 5.640625 3.125 C 5.066406 3.125 4.625 2.96875 4.3125 2.65625 C 4.007812 2.351562 3.859375 1.929688 3.859375 1.390625 C 3.859375 1.148438 3.898438 0.921875 3.984375 0.703125 C 4.066406 0.492188 4.1875 0.296875 4.34375 0.109375 C 4.21875 0.117188 4.09375 0.125 3.96875 0.125 Z M 3.96875 0.125 "/></g></g></g><g fill="#000000" fill-opacity="1"><g transform="translate(94.717652, 27.886225)"><g><path d="M 3.9375 0.125 C 2.820312 0.125 1.957031 -0.160156 1.34375 -0.734375 C 0.726562 -1.316406 0.421875 -2.132812 0.421875 -3.1875 C 0.421875 -3.820312 0.539062 -4.359375 0.78125 -4.796875 C 1.03125 -5.234375 1.378906 -5.601562 1.828125 -5.90625 C 2.285156 -6.21875 2.835938 -6.5 3.484375 -6.75 C 4.066406 -7.070312 4.679688 -7.441406 5.328125 -7.859375 C 5.972656 -8.285156 6.613281 -8.753906 7.25 -9.265625 L 7.796875 -8.625 C 7.273438 -8.175781 6.722656 -7.769531 6.140625 -7.40625 C 5.566406 -7.039062 5.039062 -6.738281 4.5625 -6.5 C 5.15625 -6.46875 5.6875 -6.328125 6.15625 -6.078125 C 6.625 -5.828125 6.992188 -5.460938 7.265625 -4.984375 C 7.535156 -4.515625 7.671875 -3.941406 7.671875 -3.265625 C 7.671875 -2.546875 7.519531 -1.929688 7.21875 -1.421875 C 6.914062 -0.921875 6.484375 -0.535156 5.921875 -0.265625 C 5.367188 -0.00390625 4.707031 0.125 3.9375 0.125 Z M 1.25 -3.21875 C 1.25 -2.71875 1.34375 -2.273438 1.53125 -1.890625 C 1.71875 -1.515625 2.007812 -1.21875 2.40625 -1 C 2.8125 -0.789062 3.328125 -0.6875 3.953125 -0.6875 C 4.617188 -0.6875 5.160156 -0.796875 5.578125 -1.015625 C 6.003906 -1.242188 6.316406 -1.550781 6.515625 -1.9375 C 6.722656 -2.320312 6.828125 -2.753906 6.828125 -3.234375 C 6.828125 -4.054688 6.570312 -4.691406 6.0625 -5.140625 C 5.5625 -5.597656 4.878906 -5.828125 4.015625 -5.828125 C 3.859375 -5.828125 3.6875 -5.816406 3.5 -5.796875 C 3.320312 -5.773438 3.144531 -5.75 2.96875 -5.71875 C 2.507812 -5.507812 2.15625 -5.269531 1.90625 -5 C 1.664062 -4.738281 1.492188 -4.457031 1.390625 -4.15625 C 1.296875 -3.851562 1.25 -3.539062 1.25 -3.21875 Z M 1.25 -3.21875 "/></g></g></g></svg>